<svg width="320px" height="320px" viewBox="0 0 320 320" version="1.1" xmlns="http://www.w3.org/2000/svg" xmlns:xlink="http://www.w3.org/1999/xlink">
    <title>Icon</title>
    <g id="Icon" stroke="none" stroke-width="1" fill="none" fill-rule="evenodd">
        <g id="Ruby-On-Rails-Logo" transform="translate(5.000000, 20.000000)" fill="#D81E00">
            <path d="M21.9330706,285 L168.175426,285 C147.940858,150.691706 196.882383,66.3142902 315,31.8677536 C315,21.7851284 315,31.8677536 315,21.7851284 C161.25283,24.9116278 63.5638533,112.649918 21.9330706,285 Z" id="Path"/>
            <polygon id="Path" points="40.4082643 185.91571 12.7326494 174.401663 -1.42108547e-14 205.44271 29.5711966 216.647115"/>
            <polygon id="Path" points="180.473102 268.073643 204.936016 276.410966 204.936016 254.508673 180.489644 244.338107"/>
            <polygon id="Path" points="100.589519 97.2287606 76.6840156 79.1687021 55.2440791 100.183105 81.5143239 117.433725"/>
            <polygon id="Path" points="184.575679 184.896295 207.95203 200.24661 211.727729 181.205266 189.863653 164.68746"/>
            <polygon id="Path" points="261.73401 65.8959446 269.354234 82.32954 285.318256 72.7048596 278.310129 56.9829895"/>
            <polygon id="Path" points="261.9137 16.1845473 255.598479 7.10542736e-15 232.79602 3.48896323 240.463873 20.0252725"/>
            <polygon id="Path" points="211.934119 111.580675 226.722547 127.792601 238.023925 113.903715 223.468375 96.5468685"/>
            <polygon id="Path" points="179.686858 38.4952218 164.641931 20.0252725 139.84762 32.5552992 156.601324 50.9216753"/>
        </g>
    </g>
</svg>